<svg xmlns="http://www.w3.org/2000/svg" xmlns:xlink="http://www.w3.org/1999/xlink" width="500" zoomAndPan="magnify" viewBox="0 0 375 374.999991" height="500" preserveAspectRatio="xMidYMid meet" version="1.0"><defs><clipPath id="2bb80fb1e7"><path d="M 9 86 L 371 86 L 371 319.570312 L 9 319.570312 Z M 9 86 " clip-rule="nonzero"/></clipPath></defs><g clip-path="url(#2bb80fb1e7)"><path fill="#edb788" d="M 368.71875 99.316406 C 365.558594 93.835938 357.660156 92.125 344.574219 94.082031 C 333.445312 95.746094 318.703125 100 300.753906 106.730469 C 291.335938 110.265625 281.265625 114.402344 270.726562 119.042969 C 234.285156 83.726562 177.433594 75.1875 131.378906 101.804688 C 104.425781 117.382812 85.148438 142.535156 77.089844 172.625 C 71.871094 192.125 71.777344 212.1875 76.585938 231.234375 C 67.3125 238.046875 58.71875 244.703125 50.957031 251.097656 C 36.15625 263.292969 25.101562 273.945312 18.097656 282.761719 C 9.863281 293.128906 7.398438 300.832031 10.558594 306.3125 C 12.878906 310.335938 17.753906 312.328125 25.363281 312.328125 C 28.113281 312.328125 31.222656 312.066406 34.699219 311.546875 C 45.828125 309.882812 60.574219 305.625 78.523438 298.894531 C 87.953125 295.359375 98.019531 291.230469 108.570312 286.59375 C 130.527344 307.867188 159.882812 319.425781 189.832031 319.425781 C 209.585938 319.425781 229.59375 314.398438 247.894531 303.824219 C 274.847656 288.246094 294.128906 263.09375 302.183594 233 C 307.402344 213.503906 307.496094 193.445312 302.691406 174.398438 C 311.964844 167.582031 320.554688 160.929688 328.320312 154.53125 C 343.117188 142.335938 354.171875 131.683594 361.175781 122.867188 C 369.410156 112.5 371.878906 104.796875 368.71875 99.316406 Z M 75.941406 291.992188 C 33.664062 307.847656 18.960938 306.136719 16.933594 302.625 C 14.910156 299.113281 20.78125 285.511719 55.636719 256.789062 C 62.6875 250.980469 70.441406 244.953125 78.769531 238.78125 C 81.277344 246.472656 84.597656 253.960938 88.734375 261.132812 C 92.902344 268.363281 97.742188 274.96875 103.113281 280.933594 C 93.601562 285.074219 84.503906 288.78125 75.941406 291.992188 Z M 95.109375 257.445312 C 80.53125 232.171875 76.65625 202.726562 84.203125 174.535156 C 91.75 146.34375 109.8125 122.78125 135.0625 108.1875 C 152.210938 98.28125 170.945312 93.570312 189.453125 93.570312 C 227.203125 93.570312 263.972656 113.171875 284.167969 148.183594 C 288.457031 155.621094 291.8125 163.425781 294.230469 171.449219 C 268.496094 190.09375 237.75 209.878906 204.722656 228.96875 C 171.703125 248.050781 139.222656 264.804688 110.230469 277.789062 C 104.53125 271.742188 99.4375 264.953125 95.109375 257.445312 Z M 295.070312 231.09375 C 287.523438 259.285156 269.464844 282.847656 244.214844 297.4375 C 227.066406 307.347656 208.328125 312.058594 189.820312 312.054688 C 162.742188 312.054688 136.167969 301.96875 115.855469 283.34375 C 144.414062 270.417969 176.167969 253.980469 208.402344 235.351562 C 240.652344 216.710938 270.765625 197.394531 296.234375 179.089844 C 300.023438 196.0625 299.695312 213.8125 295.070312 231.09375 Z M 323.640625 148.835938 C 316.585938 154.648438 308.835938 160.679688 300.507812 166.851562 C 298 159.15625 294.679688 151.667969 290.542969 144.496094 C 286.375 137.269531 281.542969 130.664062 276.171875 124.703125 C 285.679688 120.5625 294.78125 116.84375 303.335938 113.636719 C 329.914062 103.667969 345.59375 100.644531 354.078125 100.644531 C 359.089844 100.644531 361.589844 101.699219 362.339844 103.003906 C 364.363281 106.515625 358.492188 120.117188 323.640625 148.835938 Z M 323.640625 148.835938 " fill-opacity="1" fill-rule="nonzero"/></g></svg>