<svg xmlns="http://www.w3.org/2000/svg" xmlns:xlink="http://www.w3.org/1999/xlink" width="500" zoomAndPan="magnify" viewBox="0 0 375 374.999991" height="500" preserveAspectRatio="xMidYMid meet" version="1.0"><defs><clipPath id="0cae40d426"><path d="M 32 3 L 369 3 L 369 371 L 32 371 Z M 32 3 " clip-rule="nonzero"/></clipPath><clipPath id="9d4ad971c0"><path d="M 444.835938 149.222656 L 300.53125 434.277344 L -34.039062 264.90625 L 110.261719 -20.148438 Z M 444.835938 149.222656 " clip-rule="nonzero"/></clipPath><clipPath id="f6d83dc5a9"><path d="M 444.835938 149.222656 L 300.53125 434.277344 L -34.039062 264.90625 L 110.261719 -20.148438 Z M 444.835938 149.222656 " clip-rule="nonzero"/></clipPath></defs><g clip-path="url(#0cae40d426)"><g clip-path="url(#9d4ad971c0)"><g clip-path="url(#f6d83dc5a9)"><path fill="#ffe2a1" d="M 368.460938 297.621094 C 322.441406 309.8125 274.210938 304.816406 231.671875 283.285156 C 136.058594 234.882812 97.953125 117.125 146.722656 20.785156 C 149.730469 14.84375 153.066406 9.007812 156.691406 3.355469 C 111.375 19.972656 74.644531 52.621094 52.640625 96.089844 C 5.398438 189.414062 42.292969 303.472656 134.886719 350.347656 C 214.699219 390.75 313.460938 367.933594 368.460938 297.621094 Z M 368.460938 297.621094 " fill-opacity="1" fill-rule="nonzero"/></g></g></g></svg>