<svg xmlns="http://www.w3.org/2000/svg" xmlns:xlink="http://www.w3.org/1999/xlink" width="500" zoomAndPan="magnify" viewBox="0 0 375 374.999991" height="500" preserveAspectRatio="xMidYMid meet" version="1.0"><defs><clipPath id="ea943b9433"><path d="M 4.640625 13.25 L 361.640625 13.25 L 361.640625 370.25 L 4.640625 370.25 Z M 4.640625 13.25 " clip-rule="nonzero"/></clipPath></defs><g clip-path="url(#ea943b9433)"><path fill="#edb788" d="M 183.140625 370.25 C 84.523438 370.25 4.640625 289.8125 4.640625 191.75 C 4.640625 93.683594 84.523438 13.25 183.140625 13.25 C 281.753906 13.25 361.640625 93.132812 361.640625 191.75 C 361.640625 290.363281 281.203125 370.25 183.140625 370.25 Z M 183.140625 24.269531 C 90.585938 24.269531 15.65625 99.195312 15.65625 191.75 C 15.65625 284.304688 90.585938 359.230469 183.140625 359.230469 C 275.695312 359.230469 350.621094 284.304688 350.621094 191.75 C 350.621094 99.195312 275.144531 24.269531 183.140625 24.269531 Z M 183.140625 24.269531 " fill-opacity="1" fill-rule="nonzero"/></g></svg>