<svg xmlns="http://www.w3.org/2000/svg" xmlns:xlink="http://www.w3.org/1999/xlink" width="500" zoomAndPan="magnify" viewBox="0 0 375 374.999991" height="500" preserveAspectRatio="xMidYMid meet" version="1.0"><defs><clipPath id="33156050b7"><path d="M 181 7.445312 L 331.898438 7.445312 L 331.898438 196 L 181 196 Z M 181 7.445312 " clip-rule="nonzero"/></clipPath><clipPath id="af4ed8931f"><path d="M 43.148438 179 L 194 179 L 194 367.445312 L 43.148438 367.445312 Z M 43.148438 179 " clip-rule="nonzero"/></clipPath><clipPath id="3fcb8e7ec3"><path d="M 43.148438 7.445312 L 194 7.445312 L 194 196 L 43.148438 196 Z M 43.148438 7.445312 " clip-rule="nonzero"/></clipPath><clipPath id="edf468e4ba"><path d="M 181 179 L 331.898438 179 L 331.898438 367.445312 L 181 367.445312 Z M 181 179 " clip-rule="nonzero"/></clipPath></defs><g clip-path="url(#33156050b7)"><path fill="#a9bf88" d="M 187.492188 7.453125 L 187.605469 22.5625 C 187.390625 53.347656 189.148438 81.589844 192.875 107.289062 C 194.265625 115.667969 196.09375 123.480469 198.359375 130.730469 L 202.167969 141.074219 C 204.953125 147.648438 208.34375 153.449219 212.332031 158.476562 C 223.140625 171.125 237.464844 179.25 255.300781 182.839844 C 267.015625 186.476562 292.527344 188.019531 331.832031 187.46875 L 181.824219 195.332031 L 187.492188 7.453125 " fill-opacity="1" fill-rule="nonzero"/></g><g clip-path="url(#af4ed8931f)"><path fill="#a9bf88" d="M 187.523438 367.460938 L 187.410156 352.351562 C 187.625 321.566406 185.871094 293.324219 182.140625 267.625 C 180.75 259.246094 178.925781 251.433594 176.660156 244.183594 L 172.847656 233.839844 C 170.0625 227.265625 166.675781 221.464844 162.683594 216.4375 C 151.875 203.789062 137.554688 195.664062 119.71875 192.074219 C 108 188.4375 82.488281 186.894531 43.183594 187.445312 L 193.191406 179.582031 L 187.523438 367.460938 " fill-opacity="1" fill-rule="nonzero"/></g><g clip-path="url(#3fcb8e7ec3)"><path fill="#a9bf88" d="M 187.523438 7.453125 L 187.410156 22.5625 C 187.625 53.347656 185.871094 81.589844 182.140625 107.289062 C 180.75 115.667969 178.925781 123.480469 176.660156 130.730469 L 172.847656 141.074219 C 170.0625 147.648438 166.675781 153.449219 162.683594 158.476562 C 151.875 171.125 137.554688 179.25 119.71875 182.839844 C 108 186.476562 82.488281 188.019531 43.183594 187.46875 L 193.191406 195.332031 L 187.523438 7.453125 " fill-opacity="1" fill-rule="nonzero"/></g><g clip-path="url(#edf468e4ba)"><path fill="#a9bf88" d="M 187.492188 367.460938 L 187.605469 352.351562 C 187.390625 321.566406 189.148438 293.324219 192.875 267.625 C 194.265625 259.246094 196.09375 251.433594 198.359375 244.183594 L 202.167969 233.839844 C 204.953125 227.265625 208.34375 221.464844 212.332031 216.4375 C 223.140625 203.789062 237.464844 195.664062 255.300781 192.074219 C 267.015625 188.4375 292.527344 186.894531 331.832031 187.445312 L 181.824219 179.582031 L 187.492188 367.460938 " fill-opacity="1" fill-rule="nonzero"/></g></svg>