<svg xmlns="http://www.w3.org/2000/svg" xmlns:xlink="http://www.w3.org/1999/xlink" width="500" zoomAndPan="magnify" viewBox="0 0 375 374.999991" height="500" preserveAspectRatio="xMidYMid meet" version="1.0"><defs><clipPath id="a39074710c"><path d="M 10 100 L 374 100 L 374 281 L 10 281 Z M 10 100 " clip-rule="nonzero"/></clipPath><clipPath id="4600c734b9"><path d="M -12.195312 163.382812 L 340.445312 57.296875 L 386.898438 211.710938 L 34.261719 317.796875 Z M -12.195312 163.382812 " clip-rule="nonzero"/></clipPath><clipPath id="b3c695df83"><path d="M -12.195312 163.382812 L 340.445312 57.296875 L 386.898438 211.710938 L 34.261719 317.796875 Z M -12.195312 163.382812 " clip-rule="nonzero"/></clipPath><clipPath id="7cce841dff"><path d="M 340 179 L 355 179 L 355 194 L 340 194 Z M 340 179 " clip-rule="nonzero"/></clipPath><clipPath id="e24534f56e"><path d="M -12.195312 163.382812 L 340.445312 57.296875 L 386.898438 211.710938 L 34.261719 317.796875 Z M -12.195312 163.382812 " clip-rule="nonzero"/></clipPath><clipPath id="1faccede49"><path d="M -12.195312 163.382812 L 340.445312 57.296875 L 386.898438 211.710938 L 34.261719 317.796875 Z M -12.195312 163.382812 " clip-rule="nonzero"/></clipPath><clipPath id="56f41bfb64"><path d="M 21 151 L 36 151 L 36 167 L 21 167 Z M 21 151 " clip-rule="nonzero"/></clipPath><clipPath id="03c709d6d8"><path d="M -12.195312 163.382812 L 340.445312 57.296875 L 386.898438 211.710938 L 34.261719 317.796875 Z M -12.195312 163.382812 " clip-rule="nonzero"/></clipPath><clipPath id="8344bedc42"><path d="M -12.195312 163.382812 L 340.445312 57.296875 L 386.898438 211.710938 L 34.261719 317.796875 Z M -12.195312 163.382812 " clip-rule="nonzero"/></clipPath></defs><g clip-path="url(#a39074710c)"><g clip-path="url(#4600c734b9)"><g clip-path="url(#b3c695df83)"><path fill="#242424" d="M 373.804688 168.148438 C 368.84375 168.839844 365.929688 168.976562 363.75 167.804688 C 362.496094 167.128906 361.460938 165.992188 360.390625 164.28125 C 359.242188 158.128906 356.265625 152.355469 351.582031 147.058594 C 351.355469 145.414062 351.015625 143.792969 350.539062 142.207031 C 344.867188 123.351562 321.902344 110.957031 285.882812 107.300781 C 282.839844 106.992188 279.738281 106.757812 276.578125 106.574219 C 277.253906 106.171875 278.074219 105.753906 279.0625 105.28125 C 276.207031 105.671875 274.527344 105.753906 273.277344 105.078125 C 272.027344 104.40625 271.164062 102.964844 269.925781 100.359375 C 270.316406 103.21875 270.394531 104.898438 269.726562 106.148438 C 269.699219 106.195312 269.664062 106.246094 269.632812 106.292969 C 244.546875 105.632812 216.230469 108.820312 187 115.578125 C 183.191406 115.996094 179.371094 116.464844 175.535156 116.996094 C 128.804688 123.40625 85.914062 136.992188 54.75 155.242188 C 42.96875 162.140625 33.398438 169.402344 26.183594 176.8125 C 24.277344 175.535156 22.84375 173.078125 20.855469 168.917969 C 21.539062 173.886719 21.679688 176.804688 20.507812 178.980469 C 19.339844 181.160156 16.832031 182.652344 12.3125 184.816406 C 15.496094 184.378906 17.835938 184.171875 19.683594 184.378906 C 12.328125 194.21875 9.132812 204.207031 10.464844 213.871094 C 10.863281 216.753906 11.664062 219.558594 12.839844 222.273438 C 10.332031 229.925781 10.03125 237.253906 12.070312 244.039062 C 15.964844 256.988281 28.015625 266.886719 46.847656 273.003906 C 46.03125 273.796875 44.765625 274.492188 42.890625 275.390625 C 45.746094 275.003906 47.425781 274.921875 48.675781 275.59375 C 49.921875 276.265625 50.789062 277.710938 52.027344 280.3125 C 51.640625 277.503906 51.5625 275.835938 52.195312 274.59375 C 59.507812 276.566406 67.707031 278.027344 76.730469 278.945312 C 112.664062 282.589844 157.320312 277.117188 202.488281 263.527344 C 206.742188 262.25 210.953125 260.910156 215.113281 259.515625 C 229.648438 256.835938 243.679688 253.464844 256.945312 249.472656 C 279.332031 242.738281 299.550781 234.25 316.359375 224.410156 C 341.976562 209.40625 357.15625 192.707031 360.3125 176.425781 C 362.039062 177.765625 363.410156 180.164062 365.273438 184.058594 C 364.589844 179.089844 364.449219 176.171875 365.621094 173.992188 C 366.789062 171.816406 369.296875 170.324219 373.816406 168.160156 Z M 269.160156 106.921875 C 268.359375 107.792969 267.039062 108.539062 265.011719 109.507812 C 267.867188 109.117188 269.546875 109.039062 270.796875 109.710938 C 272.046875 110.382812 272.90625 111.828125 274.148438 114.429688 C 273.753906 111.574219 273.679688 109.890625 274.347656 108.640625 C 274.640625 108.097656 275.089844 107.628906 275.703125 107.167969 C 315.292969 109.230469 343.621094 121.328125 349.957031 142.382812 C 350.339844 143.65625 350.628906 144.945312 350.84375 146.25 C 341.105469 135.730469 324.550781 127.148438 302.167969 121.265625 C 271.449219 113.199219 232.96875 111.050781 192.367188 115.011719 C 220.0625 109.015625 246.289062 106.378906 269.160156 106.917969 Z M 351.007812 147.390625 C 355.601562 183.617188 297.375 231.308594 214.96875 258.910156 C 208.566406 260.09375 202.070312 261.140625 195.496094 262.042969 C 106.363281 274.289062 28.808594 256.601562 13.527344 222.265625 C 25.285156 187.101562 83.710938 146.351562 160.304688 123.308594 C 169.347656 120.585938 178.308594 118.21875 187.148438 116.183594 C 262.363281 107.925781 327.527344 121.082031 351.007812 147.390625 Z M 11.078125 213.78125 C 9.738281 204.058594 13.136719 194.128906 20.425781 184.492188 C 21.140625 184.628906 21.785156 184.847656 22.371094 185.167969 C 24.546875 186.339844 26.039062 188.847656 28.203125 193.371094 C 27.519531 188.402344 27.378906 185.484375 28.550781 183.308594 C 29.71875 181.128906 32.222656 179.636719 36.746094 177.472656 C 31.839844 178.152344 28.941406 178.285156 26.769531 177.160156 C 44.449219 159.054688 75.640625 142.445312 114.546875 130.738281 C 133.328125 125.089844 153.902344 120.582031 175.617188 117.601562 C 177.710938 117.3125 179.789062 117.046875 181.863281 116.796875 C 174.65625 118.558594 167.398438 120.53125 160.132812 122.714844 C 114.964844 136.304688 74.699219 156.378906 46.742188 179.242188 C 29.191406 193.597656 17.804688 207.984375 13.136719 221.359375 C 12.132812 218.910156 11.433594 216.382812 11.074219 213.777344 Z M 202.3125 262.9375 C 143.832031 280.53125 88.480469 283.671875 52.574219 274.007812 C 53.339844 273.019531 54.71875 272.234375 56.945312 271.164062 C 54.089844 271.558594 52.410156 271.632812 51.160156 270.960938 C 49.910156 270.289062 49.054688 268.84375 47.808594 266.242188 C 48.199219 269.101562 48.28125 270.78125 47.609375 272.03125 C 47.53125 272.175781 47.4375 272.320312 47.332031 272.460938 C 29.011719 266.550781 16.59375 256.933594 12.660156 243.863281 C 10.699219 237.339844 10.976562 230.363281 13.238281 223.148438 C 20.351562 238.378906 39.660156 250.6875 68.941406 258.378906 C 103.875 267.558594 148.851562 269.074219 195.578125 262.660156 C 200.699219 261.957031 205.773438 261.164062 210.792969 260.296875 C 207.996094 261.203125 205.171875 262.085938 202.320312 262.941406 Z M 316.050781 223.871094 C 290.335938 238.933594 256.59375 250.804688 219.308594 258.089844 C 257.605469 244.835938 291.449219 226.980469 315.878906 206.992188 C 340.996094 186.449219 353.484375 165.839844 351.722656 148.210938 C 355.476562 152.625 358.074219 157.390625 359.371094 162.488281 C 358.914062 161.628906 358.4375 160.671875 357.921875 159.597656 C 358.609375 164.566406 358.746094 167.484375 357.578125 169.660156 C 356.410156 171.839844 353.902344 173.332031 349.382812 175.496094 C 354.347656 174.8125 357.261719 174.675781 359.4375 175.847656 C 359.546875 175.90625 359.65625 175.96875 359.757812 176.035156 C 356.757812 192.214844 341.652344 208.871094 316.046875 223.867188 Z M 316.050781 223.871094 " fill-opacity="1" fill-rule="nonzero"/></g></g></g><g clip-path="url(#7cce841dff)"><g clip-path="url(#e24534f56e)"><g clip-path="url(#1faccede49)"><path fill="#242424" d="M 348.570312 184.375 C 347.320312 183.703125 346.464844 182.257812 345.21875 179.65625 C 345.609375 182.515625 345.691406 184.195312 345.019531 185.445312 C 344.347656 186.695312 342.90625 187.558594 340.304688 188.796875 C 343.160156 188.410156 344.839844 188.328125 346.089844 189 C 347.339844 189.671875 348.203125 191.117188 349.441406 193.71875 C 349.050781 190.859375 348.96875 189.179688 349.640625 187.933594 C 350.3125 186.683594 351.753906 185.816406 354.355469 184.578125 C 351.5 184.96875 349.820312 185.046875 348.570312 184.375 Z M 348.570312 184.375 " fill-opacity="1" fill-rule="nonzero"/></g></g></g><g clip-path="url(#56f41bfb64)"><g clip-path="url(#03c709d6d8)"><g clip-path="url(#8344bedc42)"><path fill="#242424" d="M 26.875 161.34375 C 28.125 162.015625 28.984375 163.460938 30.230469 166.066406 C 29.839844 163.207031 29.757812 161.527344 30.429688 160.277344 C 31.097656 159.027344 32.542969 158.160156 35.144531 156.921875 C 32.285156 157.3125 30.609375 157.394531 29.359375 156.71875 C 28.109375 156.046875 27.246094 154.605469 26.003906 152 L 26.003906 151.996094 C 26.394531 154.855469 26.476562 156.535156 25.804688 157.785156 C 25.132812 159.035156 23.691406 159.898438 21.089844 161.136719 C 23.945312 160.746094 25.625 160.667969 26.875 161.339844 Z M 26.875 161.34375 " fill-opacity="1" fill-rule="nonzero"/></g></g></g></svg>