<svg xmlns="http://www.w3.org/2000/svg" xmlns:xlink="http://www.w3.org/1999/xlink" width="500" zoomAndPan="magnify" viewBox="0 0 375 374.999991" height="500" preserveAspectRatio="xMidYMid meet" version="1.0"><defs><g/><clipPath id="d75eabaac3"><path d="M 33.167969 50 L 114 50 L 114 131.167969 L 33.167969 131.167969 Z M 33.167969 50 " clip-rule="nonzero"/></clipPath><clipPath id="13dfeef2e7"><path d="M 101 40.960938 L 134.421875 40.960938 L 134.421875 75 L 101 75 Z M 101 40.960938 " clip-rule="nonzero"/></clipPath><clipPath id="1fbc5e9531"><path d="M 214.070312 237 L 294 237 L 294 317.769531 L 214.070312 317.769531 Z M 214.070312 237 " clip-rule="nonzero"/></clipPath><clipPath id="51a9114175"><path d="M 282 227.5625 L 315.324219 227.5625 L 315.324219 261 L 282 261 Z M 282 227.5625 " clip-rule="nonzero"/></clipPath></defs><g fill="#ffe2a1" fill-opacity="1"><g transform="translate(99.492051, 338.309158)"><g><path d="M 119.300781 -255.445312 L 54.738281 -255.445312 C 26.199219 -255.445312 0 -251.703125 0 -233.925781 C 0 -226.4375 5.144531 -216.613281 9.355469 -211 C 22.457031 -192.285156 28.070312 -87.488281 11.226562 -67.371094 C 6.082031 -60.820312 0 -50.527344 0 -42.105469 C 0 -23.859375 26.199219 -20.585938 54.738281 -20.585938 L 58.949219 -20.585938 C 87.488281 -20.585938 113.6875 -23.859375 113.6875 -42.105469 C 113.6875 -50.527344 107.605469 -60.820312 101.992188 -67.371094 C 96.84375 -73.921875 94.039062 -86.550781 92.632812 -107.136719 L 119.300781 -107.136719 C 170.296875 -107.136719 212.402344 -141.289062 212.402344 -181.058594 C 212.402344 -220.824219 170.296875 -255.445312 119.300781 -255.445312 Z M 109.945312 -125.382812 C 84.679688 -125.382812 84.679688 -237.199219 109.945312 -237.199219 C 129.125 -237.199219 145.5 -206.320312 145.5 -181.058594 C 145.5 -156.261719 128.191406 -125.382812 109.945312 -125.382812 Z M 109.945312 -125.382812 "/></g></g></g><g fill="#edb788" fill-opacity="1"><g transform="translate(83.833506, 323.200022)"><g><path d="M 119.300781 -255.445312 L 54.738281 -255.445312 C 26.199219 -255.445312 0 -251.703125 0 -233.925781 C 0 -226.4375 5.144531 -216.613281 9.355469 -211 C 22.457031 -192.285156 28.070312 -87.488281 11.226562 -67.371094 C 6.082031 -60.820312 0 -50.527344 0 -42.105469 C 0 -23.859375 26.199219 -20.585938 54.738281 -20.585938 L 58.949219 -20.585938 C 87.488281 -20.585938 113.6875 -23.859375 113.6875 -42.105469 C 113.6875 -50.527344 107.605469 -60.820312 101.992188 -67.371094 C 96.84375 -73.921875 94.039062 -86.550781 92.632812 -107.136719 L 119.300781 -107.136719 C 170.296875 -107.136719 212.402344 -141.289062 212.402344 -181.058594 C 212.402344 -220.824219 170.296875 -255.445312 119.300781 -255.445312 Z M 109.945312 -125.382812 C 84.679688 -125.382812 84.679688 -237.199219 109.945312 -237.199219 C 129.125 -237.199219 145.5 -206.320312 145.5 -181.058594 C 145.5 -156.261719 128.191406 -125.382812 109.945312 -125.382812 Z M 109.945312 -125.382812 "/></g></g></g><g clip-path="url(#d75eabaac3)"><path fill="#ffe2a1" d="M 73.167969 50.835938 C 72.40625 53.167969 71.507812 55.453125 70.480469 57.679688 C 69.449219 59.910156 68.292969 62.070312 67.015625 64.164062 C 65.734375 66.253906 64.335938 68.265625 62.824219 70.195312 C 61.308594 72.125 59.6875 73.957031 57.960938 75.695312 C 56.234375 77.433594 54.414062 79.0625 52.496094 80.585938 C 50.578125 82.109375 48.582031 83.515625 46.503906 84.804688 C 44.421875 86.09375 42.273438 87.257812 40.058594 88.292969 C 37.84375 89.328125 35.578125 90.230469 33.257812 91 C 35.578125 91.769531 37.84375 92.671875 40.058594 93.710938 C 42.273438 94.746094 44.421875 95.910156 46.5 97.195312 C 48.582031 98.484375 50.578125 99.890625 52.496094 101.414062 C 54.414062 102.941406 56.234375 104.570312 57.960938 106.308594 C 59.6875 108.046875 61.308594 109.878906 62.820312 111.808594 C 64.335938 113.738281 65.734375 115.746094 67.015625 117.839844 C 68.292969 119.933594 69.449219 122.09375 70.480469 124.324219 C 71.507812 126.550781 72.40625 128.832031 73.167969 131.167969 C 73.933594 128.832031 74.832031 126.550781 75.859375 124.324219 C 76.890625 122.09375 78.042969 119.933594 79.324219 117.839844 C 80.605469 115.746094 82.003906 113.738281 83.515625 111.808594 C 85.03125 109.878906 86.652344 108.046875 88.378906 106.308594 C 90.105469 104.570312 91.925781 102.941406 93.84375 101.414062 C 95.757812 99.890625 97.757812 98.484375 99.835938 97.199219 C 101.914062 95.910156 104.0625 94.746094 106.277344 93.710938 C 108.492188 92.671875 110.757812 91.769531 113.078125 91 C 110.757812 90.230469 108.492188 89.328125 106.277344 88.292969 C 104.0625 87.257812 101.914062 86.09375 99.835938 84.804688 C 97.757812 83.515625 95.757812 82.109375 93.84375 80.585938 C 91.925781 79.0625 90.105469 77.433594 88.378906 75.695312 C 86.652344 73.957031 85.03125 72.125 83.515625 70.195312 C 82.003906 68.265625 80.605469 66.253906 79.324219 64.164062 C 78.042969 62.070312 76.890625 59.910156 75.859375 57.679688 C 74.832031 55.449219 73.933594 53.167969 73.167969 50.835938 Z M 73.167969 50.835938 " fill-opacity="1" fill-rule="nonzero"/></g><g clip-path="url(#13dfeef2e7)"><path fill="#ffe2a1" d="M 117.796875 40.960938 C 117.164062 42.898438 116.3125 44.738281 115.25 46.476562 C 114.1875 48.214844 112.9375 49.804688 111.503906 51.25 C 110.066406 52.691406 108.488281 53.949219 106.757812 55.019531 C 105.03125 56.089844 103.203125 56.945312 101.277344 57.585938 C 103.203125 58.222656 105.03125 59.078125 106.757812 60.148438 C 108.488281 61.21875 110.066406 62.476562 111.503906 63.921875 C 112.9375 65.363281 114.1875 66.957031 115.25 68.695312 C 116.3125 70.433594 117.164062 72.269531 117.796875 74.210938 C 118.433594 72.269531 119.28125 70.433594 120.347656 68.695312 C 121.410156 66.957031 122.660156 65.363281 124.09375 63.921875 C 125.527344 62.476562 127.109375 61.21875 128.835938 60.148438 C 130.566406 59.078125 132.390625 58.222656 134.320312 57.585938 C 132.390625 56.945312 130.566406 56.089844 128.835938 55.019531 C 127.109375 53.949219 125.527344 52.691406 124.09375 51.25 C 122.660156 49.804688 121.410156 48.214844 120.347656 46.476562 C 119.28125 44.738281 118.433594 42.898438 117.796875 40.960938 Z M 117.796875 40.960938 " fill-opacity="1" fill-rule="nonzero"/></g><g clip-path="url(#1fbc5e9531)"><path fill="#edb788" d="M 254.070312 237.4375 C 253.308594 239.769531 252.410156 242.054688 251.378906 244.28125 C 250.351562 246.511719 249.195312 248.671875 247.914062 250.765625 C 246.636719 252.855469 245.238281 254.867188 243.722656 256.796875 C 242.210938 258.726562 240.589844 260.558594 238.863281 262.296875 C 237.136719 264.035156 235.3125 265.664062 233.398438 267.1875 C 231.480469 268.710938 229.484375 270.117188 227.402344 271.40625 C 225.324219 272.695312 223.175781 273.859375 220.960938 274.894531 C 218.746094 275.929688 216.480469 276.832031 214.160156 277.601562 C 216.480469 278.371094 218.746094 279.273438 220.960938 280.3125 C 223.175781 281.347656 225.324219 282.511719 227.402344 283.796875 C 229.484375 285.085938 231.480469 286.492188 233.398438 288.015625 C 235.3125 289.542969 237.136719 291.171875 238.863281 292.910156 C 240.589844 294.648438 242.210938 296.480469 243.722656 298.410156 C 245.238281 300.339844 246.636719 302.347656 247.914062 304.441406 C 249.195312 306.535156 250.351562 308.695312 251.378906 310.925781 C 252.410156 313.152344 253.308594 315.433594 254.070312 317.769531 C 254.835938 315.433594 255.734375 313.152344 256.761719 310.925781 C 257.792969 308.695312 258.945312 306.535156 260.226562 304.441406 C 261.507812 302.347656 262.90625 300.339844 264.417969 298.410156 C 265.933594 296.480469 267.550781 294.648438 269.28125 292.910156 C 271.007812 291.171875 272.828125 289.542969 274.746094 288.015625 C 276.660156 286.492188 278.660156 285.085938 280.738281 283.800781 C 282.816406 282.511719 284.964844 281.347656 287.179688 280.3125 C 289.394531 279.277344 291.660156 278.371094 293.980469 277.601562 C 291.660156 276.832031 289.394531 275.929688 287.179688 274.894531 C 284.964844 273.859375 282.816406 272.695312 280.738281 271.40625 C 278.660156 270.117188 276.660156 268.710938 274.746094 267.1875 C 272.828125 265.664062 271.007812 264.035156 269.28125 262.296875 C 267.550781 260.558594 265.933594 258.726562 264.417969 256.796875 C 262.90625 254.867188 261.507812 252.855469 260.226562 250.765625 C 258.945312 248.671875 257.792969 246.511719 256.761719 244.28125 C 255.734375 242.050781 254.835938 239.769531 254.070312 237.4375 Z M 254.070312 237.4375 " fill-opacity="1" fill-rule="nonzero"/></g><g clip-path="url(#51a9114175)"><path fill="#edb788" d="M 298.699219 227.5625 C 298.066406 229.5 297.214844 231.339844 296.152344 233.078125 C 295.089844 234.816406 293.839844 236.40625 292.40625 237.851562 C 290.96875 239.292969 289.390625 240.550781 287.660156 241.621094 C 285.933594 242.691406 284.105469 243.546875 282.179688 244.1875 C 284.105469 244.824219 285.933594 245.679688 287.660156 246.75 C 289.390625 247.820312 290.96875 249.078125 292.40625 250.523438 C 293.839844 251.964844 295.089844 253.558594 296.152344 255.296875 C 297.214844 257.035156 298.066406 258.871094 298.699219 260.8125 C 299.335938 258.871094 300.183594 257.035156 301.25 255.296875 C 302.3125 253.558594 303.5625 251.964844 304.996094 250.523438 C 306.429688 249.078125 308.011719 247.820312 309.738281 246.75 C 311.46875 245.679688 313.292969 244.824219 315.222656 244.1875 C 313.292969 243.546875 311.46875 242.691406 309.738281 241.621094 C 308.011719 240.550781 306.429688 239.292969 304.996094 237.851562 C 303.5625 236.40625 302.3125 234.816406 301.25 233.078125 C 300.183594 231.339844 299.335938 229.5 298.699219 227.5625 Z M 298.699219 227.5625 " fill-opacity="1" fill-rule="nonzero"/></g></svg>